<mxfile host="app.diagrams.net" modified="2024-03-01T01:07:36.236Z" agent="Mozilla/5.0 (Windows NT 10.0; Win64; x64) AppleWebKit/537.36 (KHTML, like Gecko) Chrome/122.0.0.0 Safari/537.36" etag="Qccoz2uwAArOjmvFKa8T" version="24.0.0" type="github">
  <diagram name="第 1 页" id="uv9SvoQawzCtk788nvmD">
    <mxGraphModel dx="545" dy="353" grid="0" gridSize="10" guides="1" tooltips="1" connect="1" arrows="1" fold="1" page="1" pageScale="1" pageWidth="827" pageHeight="1169" background="#FAFAFA" math="0" shadow="0">
      <root>
        <mxCell id="0" />
        <mxCell id="1" parent="0" />
        <mxCell id="ac51AG8sJwIWTgO-2ipH-2" value="密码输入" style="rounded=0;whiteSpace=wrap;html=1;" vertex="1" parent="1">
          <mxGeometry x="83" y="216" width="90" height="20" as="geometry" />
        </mxCell>
        <mxCell id="ac51AG8sJwIWTgO-2ipH-3" value="输出解密信息" style="rounded=0;whiteSpace=wrap;html=1;" vertex="1" parent="1">
          <mxGeometry x="472" y="216" width="90" height="20" as="geometry" />
        </mxCell>
        <mxCell id="ac51AG8sJwIWTgO-2ipH-4" value="" style="shape=flexArrow;endArrow=classic;html=1;rounded=0;" edge="1" parent="1">
          <mxGeometry width="50" height="50" relative="1" as="geometry">
            <mxPoint x="183" y="225.66000000000003" as="sourcePoint" />
            <mxPoint x="243" y="225.66000000000003" as="targetPoint" />
            <Array as="points">
              <mxPoint x="203" y="225.66000000000003" />
              <mxPoint x="223" y="225.66000000000003" />
            </Array>
          </mxGeometry>
        </mxCell>
        <mxCell id="ac51AG8sJwIWTgO-2ipH-5" value="" style="shape=flexArrow;endArrow=classic;html=1;rounded=0;" edge="1" parent="1">
          <mxGeometry width="50" height="50" relative="1" as="geometry">
            <mxPoint x="387" y="225.71000000000004" as="sourcePoint" />
            <mxPoint x="447" y="225.71000000000004" as="targetPoint" />
            <Array as="points">
              <mxPoint x="407" y="225.71000000000004" />
              <mxPoint x="427" y="225.71000000000004" />
            </Array>
          </mxGeometry>
        </mxCell>
        <mxCell id="ac51AG8sJwIWTgO-2ipH-6" value="艾伦-图灵" style="ellipse;whiteSpace=wrap;html=1;aspect=fixed;" vertex="1" parent="1">
          <mxGeometry x="76" y="45" width="80" height="80" as="geometry" />
        </mxCell>
        <mxCell id="ac51AG8sJwIWTgO-2ipH-7" value="图灵机" style="shape=cube;whiteSpace=wrap;html=1;boundedLbl=1;backgroundOutline=1;darkOpacity=0.05;darkOpacity2=0.1;size=6;" vertex="1" parent="1">
          <mxGeometry x="253" y="186" width="120" height="80" as="geometry" />
        </mxCell>
        <mxCell id="ac51AG8sJwIWTgO-2ipH-12" value="密码学" style="ellipse;whiteSpace=wrap;html=1;" vertex="1" parent="1">
          <mxGeometry x="181" y="58" width="65" height="54" as="geometry" />
        </mxCell>
      </root>
    </mxGraphModel>
  </diagram>
</mxfile>
